<?xml version="1.0" encoding="utf-8"?>
<!-- Generator: Adobe Illustrator 16.0.0, SVG Export Plug-In . SVG Version: 6.00 Build 0)  -->
<!DOCTYPE svg PUBLIC "-//W3C//DTD SVG 1.1//EN" "http://www.w3.org/Graphics/SVG/1.1/DTD/svg11.dtd">
<svg version="1.1" id="Layer_1" xmlns="http://www.w3.org/2000/svg" xmlns:xlink="http://www.w3.org/1999/xlink" x="0px" y="0px"
	 width="614.033px" height="614.09px" viewBox="0 0 614.033 614.09" enable-background="new 0 0 614.033 614.09"
	 xml:space="preserve">
<g id="JtfE3u_1_">
	<g>
		<path fill="#88B14A" d="M0,614.09C0,409.413,0,204.735,0,0c204.633,0,409.286,0,614.033,0c0,204.659,0,409.375,0,614.09
			C409.403,614.09,204.712,614.09,0,614.09z M125.511,373.312c12.96,0,25.919,0.004,38.879-0.007
			c1.471-0.001,2.944-0.062,4.413-0.145c8.692-0.488,18.829-6.678,22.115-18.361c0.726-2.579,0.858-5.217,0.858-7.876
			c-0.006-26.607-0.003-53.214-0.006-79.821c0-0.883,0.005-1.769-0.056-2.649c-0.569-8.173-4.293-14.583-10.976-19.24
			c-4.132-2.879-8.771-4.31-13.836-4.305c-10.898,0.011-21.796,0-32.694,0c-16.298,0-32.596-0.001-48.894,0.002
			c-1.767,0-3.529,0.01-5.28,0.344c-13.306,2.535-20.931,14.256-20.647,25.105c0.192,7.358,0.036,14.726,0.036,22.089
			c0,19.931,0.07,39.861-0.026,59.792c-0.053,10.922,7.668,21.659,19.337,24.374c2.513,0.584,5.05,0.691,7.603,0.693
			C99.395,373.316,112.453,373.311,125.511,373.312z M291.514,342.285c0.59,0.945,0.454,1.648,0.488,2.325
			c0.112,2.193,0.111,2.207,2.429,2.23c2.06,0.021,4.12,0.017,6.179,0.002c2.781-0.02,2.802-0.028,2.803-2.706
			c0.007-15.105,0.004-30.211,0.002-45.315c0-0.588,0.002-1.179-0.04-1.765c-0.042-0.569-0.424-0.89-0.957-0.917
			c-1.174-0.058-2.351-0.071-3.526-0.074c-1.863-0.006-3.728-0.014-5.59,0.029c-0.892,0.02-1.171,0.36-1.279,1.268
			c-0.113,0.958,0.188,1.965-0.454,3.133c-2.244-1.369-4.533-2.668-7.064-3.413c-2.56-0.753-5.18-1.117-7.844-0.991
			c-2.554,0.122-5.06,0.54-7.484,1.417c-2.513,0.909-4.83,2.154-6.947,3.776c-2.119,1.624-3.933,3.538-5.45,5.735
			c-6.595,9.552-5.812,22.286,1.92,31.045c3.823,4.332,8.545,7.201,14.218,8.305C279.581,347.664,285.752,346.236,291.514,342.285z
			 M324.41,346.818c0.619-1.212,0.396-2.312,0.399-3.369c0.022-7.366,0.026-14.732,0.003-22.099
			c-0.006-1.877,0.119-3.737,0.564-5.555c0.996-4.061,3.41-6.74,7.577-7.757c2.142-0.522,4.294-0.578,6.435-0.279
			c3.463,0.482,5.645,2.498,6.591,5.886c0.482,1.727,0.583,3.476,0.581,5.25c-0.007,8.054-0.003,16.107-0.001,24.161
			c0,0.786-0.019,1.572,0.015,2.357c0.047,1.104,0.286,1.385,1.413,1.4c2.848,0.04,5.697,0.046,8.545,0.014
			c1.497-0.018,1.703-0.233,1.717-1.709c0.028-3.044,0.014-6.089,0.013-9.134c-0.003-6.09,0.03-12.18-0.027-18.269
			c-0.034-3.646-0.473-7.255-1.742-10.706c-1.731-4.707-4.888-8.065-9.722-9.542c-6.578-2.011-13.142-2.099-19.562,0.756
			c-2.123,0.944-2.12,0.941-2.486-1.5c-0.026-0.175-0.196-0.329-0.387-0.631c-3.246,0-6.58-0.009-9.914,0.007
			c-0.678,0.003-1.106,0.401-1.152,1.084c-0.053,0.783-0.046,1.57-0.046,2.355c-0.002,14.635-0.002,29.27,0,43.904
			c0,0.687-0.014,1.376,0.031,2.062c0.061,0.914,0.376,1.29,1.25,1.298C317.828,346.836,321.154,346.818,324.41,346.818z
			 M420.794,296.075c-13.924-0.014-25.304,11.374-25.285,25.303c0.018,13.795,11.59,25.449,25.275,25.455
			c13.673,0.005,25.269-11.66,25.293-25.445C446.102,307.47,434.735,296.089,420.794,296.075z M555.827,321.129
			c0.178-12.703-10.286-25.053-25.171-25.047c-14.885,0.006-25.299,12.439-25.182,25.373c0.122,13.567,11.803,25.21,25.214,25.21
			C544.041,346.666,556.08,334.993,555.827,321.129z M224.887,316.128c0,9.026,0,18.052,0.001,27.078
			c0,0.785-0.014,1.571,0.028,2.354c0.051,0.96,0.294,1.235,1.244,1.25c2.452,0.039,4.905,0.02,7.357,0.036
			c3.008,0.019,2.791-0.141,2.792-2.716c0.002-11.087,0.001-22.174,0.001-33.26c0-0.785-0.016-1.571,0.017-2.354
			c0.05-1.22,0.22-1.404,1.334-1.459c0.686-0.034,1.373-0.018,2.06-0.02c2.55-0.007,5.102,0.007,7.652-0.028
			c0.998-0.014,1.274-0.267,1.284-1.198c0.029-2.845,0.027-5.69-0.002-8.535c-0.009-0.88-0.318-1.151-1.317-1.183
			c-1.47-0.047-2.942-0.023-4.414-0.033c-1.864-0.013-3.728-0.013-5.591-0.057c-0.526-0.012-0.95-0.292-0.966-0.891
			c-0.069-2.646-0.319-5.32,0.121-7.932c0.738-4.378,3.729-8.567,9.738-8.29c0.489,0.022,0.981,0.011,1.471-0.003
			c1.78-0.051,1.881-0.118,1.899-1.783c0.028-2.551,0.011-5.102,0.002-7.652c-0.001-0.391-0.031-0.786-0.098-1.17
			c-0.074-0.425-0.372-0.722-0.792-0.729c-2.448-0.036-4.906-0.248-7.332,0.276c-7.439,1.608-12.249,6.243-15.049,13.154
			c-1.161,2.865-1.453,5.88-1.447,8.946C224.896,298.664,224.887,307.396,224.887,316.128z M393.027,278.452
			c0-3.25,0.009-6.578-0.007-9.905c-0.003-0.731-0.503-1.006-1.163-1.017c-1.177-0.019-2.354-0.023-3.531-0.02
			c-5.273,0.014-9.768,1.955-13.476,5.645c-4.387,4.368-6.516,9.727-6.523,15.898c-0.022,18.349-0.01,36.698-0.009,55.046
			c0,0.588-0.001,1.179,0.041,1.765c0.04,0.565,0.392,0.906,0.948,0.911c3.139,0.023,6.277,0.03,9.416,0.024
			c0.568-0.001,0.903-0.342,0.926-0.915c0.034-0.882,0.051-1.765,0.052-2.647c0.003-9.714,0.001-19.428,0.002-29.142
			c0-1.767-0.021-3.533,0.016-5.299c0.031-1.51,0.23-1.689,1.686-1.748c0.49-0.02,0.981-0.009,1.472-0.01
			c2.649-0.005,5.299,0.007,7.947-0.022c0.959-0.01,1.207-0.242,1.219-1.231c0.033-2.845,0.031-5.69,0.003-8.536
			c-0.01-0.929-0.26-1.144-1.305-1.162c-2.061-0.036-4.121-0.012-6.182-0.028c-1.274-0.01-2.549-0.029-3.822-0.079
			c-0.544-0.021-0.947-0.337-0.96-0.901c-0.058-2.643-0.295-5.295,0.186-7.923c0.989-5.411,4.272-8.176,9.745-8.268
			C390.767,278.87,391.865,279.093,393.027,278.452z M476.557,335.406c-1.306-0.339-2.685-0.15-4.044-0.165
			c-2.878-0.031-5.091-1.295-6.759-3.563c-1.123-1.529-1.837-3.252-1.972-5.159c-0.097-1.369-0.116-2.746-0.116-4.119
			c-0.008-17.083-0.005-34.166-0.007-51.249c0-0.883-0.016-1.767-0.027-2.65c-0.01-0.716-0.398-1.068-1.094-1.073
			c-2.553-0.018-5.105-0.034-7.657-0.031c-2.967,0.003-2.732-0.092-2.733,2.709c-0.007,18.065-0.001,36.129-0.008,54.194
			c-0.001,1.478,0.131,2.936,0.362,4.395c1.861,11.765,11.501,19.16,23.335,17.901c0.761-0.081,1.007-0.518,1.006-1.17
			c-0.006-3.14-0.025-6.28-0.055-9.42C476.787,335.832,476.659,335.659,476.557,335.406z M499.204,321.441c0-3.729,0-7.46,0-11.189
			c0-3.927,0.012-7.854-0.004-11.78c-0.01-2.365-0.029-2.379-2.503-2.405c-2.062-0.021-4.122-0.006-6.184-0.005
			c-3.472,0.001-3.429-0.251-3.426,3.316c0.01,14.725,0.004,29.448,0.006,44.173c0,0.687-0.002,1.375,0.037,2.06
			c0.037,0.653,0.35,1.179,1.052,1.183c3.336,0.021,6.672,0.011,10.008-0.019c0.722-0.006,0.994-0.508,0.996-1.186
			c0.001-0.785,0.017-1.57,0.017-2.355C499.205,335.969,499.204,328.706,499.204,321.441z M493.155,267.405
			c-3.489-0.174-7.352,2.806-7.38,7.24c-0.024,4.024,3.282,7.25,7.355,7.283c4.069,0.033,7.29-3.161,7.321-7.258
			C500.482,270.637,497.222,267.392,493.155,267.405z"/>
		<path fill-rule="evenodd" clip-rule="evenodd" fill="#FBFCF9" d="M125.511,373.311c-13.058,0-26.116,0.005-39.173-0.003
			c-2.553-0.002-5.09-0.109-7.603-0.693c-11.669-2.715-19.391-13.452-19.337-24.374c0.097-19.931,0.027-39.861,0.026-59.792
			c0-7.363,0.156-14.731-0.036-22.089c-0.284-10.849,7.341-22.57,20.647-25.105c1.75-0.334,3.513-0.344,5.28-0.344
			c16.298-0.003,32.596-0.002,48.894-0.002c10.898,0,21.796,0.011,32.694,0c5.066-0.005,9.705,1.425,13.836,4.305
			c6.683,4.657,10.407,11.067,10.976,19.24c0.062,0.88,0.056,1.766,0.056,2.649c0.003,26.607,0,53.213,0.006,79.821
			c0,2.659-0.132,5.297-0.858,7.876c-3.286,11.684-13.423,17.873-22.115,18.361c-1.469,0.082-2.942,0.144-4.413,0.145
			C151.43,373.316,138.471,373.312,125.511,373.311z M105.11,296.4c0.54,0.117,0.931-0.201,1.353-0.42
			c6.563-3.404,13.612-4.997,20.932-5.389c1.815-0.097,2.76-0.546,3.362-2.368c1.231-3.725,3.982-6.002,7.783-6.906
			c1.129-0.269,2.336-0.283,3.508-0.289c5.204-0.029,10.407-0.012,15.61-0.016c0.785,0,1.57-0.019,2.355-0.044
			c0.422-0.014,0.749-0.215,0.898-0.62c0.169-0.459,0.331-0.925,0.455-1.399c1.214-4.65,2.431-9.301,3.616-13.959
			c0.165-0.647,0.492-1.291,0.297-1.998c-0.616-0.43-1.321-0.32-1.998-0.321c-6.186-0.005-12.371-0.011-18.556,0.011
			c-2.654,0.01-5.291,0.23-7.905,0.735c-7.154,1.382-13.72,4.062-19.369,8.756c-4.968,4.128-8.399,9.284-10.221,15.493
			c-0.718,2.447-1.418,4.899-2.117,7.352C104.984,295.475,104.75,295.945,105.11,296.4z M97.36,352.179c0,0.001,0,0.002,0,0.003
			c2.355,0,4.71,0.002,7.065-0.001c1.177-0.001,2.354-0.021,3.532-0.011c0.79,0.006,1.305-0.335,1.519-1.101
			c0.158-0.567,0.304-1.137,0.455-1.705c1.658-6.255,3.317-12.509,4.974-18.764c0.879-3.316,1.718-6.645,2.647-9.947
			c0.46-1.638,0.188-2.045-1.427-1.684c-1.434,0.321-2.871,0.65-4.28,1.065c-5.213,1.534-10.13,3.689-14.462,7.041
			c-2.67,2.065-4.916,4.505-6.528,7.488c-0.938,1.735-1.53,3.597-2.015,5.509c-0.891,3.516-1.881,7.007-2.793,10.517
			c-0.317,1.224-0.022,1.572,1.304,1.581C90.688,352.194,94.024,352.179,97.36,352.179z M93.974,322.123
			c0.987-0.22,1.706-0.935,2.549-1.42c8.493-4.897,17.58-7.68,27.439-7.707c3.436-0.01,6.872,0.026,10.308-0.01
			c3.029-0.032,2.93,0.52,3.736-2.767c0.748-3.048,1.569-6.078,2.366-9.114c0.299-1.138,0.643-2.265,0.926-3.407
			c0.46-1.862,0.298-2.13-1.538-2.118c-4.024,0.026-8.049,0.057-12.07,0.203c-4.342,0.158-8.582,1.016-12.663,2.486
			c-10.809,3.893-17.989,11.237-21.045,22.429C93.853,321.176,93.695,321.638,93.974,322.123z"/>
		<path fill-rule="evenodd" clip-rule="evenodd" fill="#FBFCF9" d="M291.514,342.285c-5.761,3.951-11.933,5.379-18.596,4.084
			c-5.673-1.104-10.395-3.973-14.218-8.305c-7.732-8.76-8.515-21.493-1.92-31.045c1.517-2.197,3.332-4.111,5.45-5.735
			c2.117-1.622,4.435-2.867,6.947-3.776c2.425-0.877,4.93-1.295,7.484-1.417c2.664-0.126,5.284,0.238,7.844,0.991
			c2.531,0.745,4.821,2.044,7.064,3.413c0.642-1.168,0.341-2.175,0.454-3.133c0.107-0.908,0.387-1.248,1.279-1.268
			c1.863-0.042,3.727-0.035,5.59-0.029c1.176,0.003,2.353,0.016,3.526,0.074c0.533,0.027,0.916,0.348,0.957,0.917
			c0.042,0.586,0.04,1.176,0.04,1.765c0.001,15.104,0.005,30.21-0.002,45.315c-0.001,2.678-0.022,2.687-2.803,2.706
			c-2.06,0.015-4.12,0.019-6.179-0.002c-2.318-0.023-2.317-0.037-2.429-2.23C291.967,343.933,292.104,343.23,291.514,342.285z
			 M277.315,307.383c-3.956,0.04-7.247,1.55-9.847,4.518c-5.445,6.214-4.312,16.274,2.366,21.133c2.207,1.605,4.668,2.39,7.41,2.463
			c6.086,0.163,12.158-4.566,13.874-10.762c0.394-1.423,0.61-2.873,0.479-4.365C290.959,313.083,284.626,307.317,277.315,307.383z"
			/>
		<path fill-rule="evenodd" clip-rule="evenodd" fill="#FBFCF9" d="M324.41,346.818c-3.256,0-6.582,0.019-9.906-0.013
			c-0.874-0.008-1.189-0.384-1.25-1.298c-0.045-0.686-0.031-1.375-0.031-2.062c-0.002-14.635-0.002-29.27,0-43.904
			c0-0.785-0.007-1.573,0.046-2.355c0.046-0.683,0.475-1.081,1.152-1.084c3.334-0.017,6.668-0.007,9.914-0.007
			c0.19,0.302,0.36,0.456,0.387,0.631c0.366,2.44,0.363,2.444,2.486,1.5c6.421-2.854,12.984-2.767,19.562-0.756
			c4.834,1.477,7.99,4.835,9.722,9.542c1.27,3.451,1.708,7.059,1.742,10.706c0.058,6.089,0.024,12.179,0.027,18.269
			c0.001,3.045,0.016,6.09-0.013,9.134c-0.014,1.476-0.22,1.691-1.717,1.709c-2.848,0.032-5.697,0.026-8.545-0.014
			c-1.127-0.016-1.366-0.297-1.413-1.4c-0.033-0.785-0.015-1.571-0.015-2.357c-0.002-8.054-0.006-16.107,0.001-24.161
			c0.002-1.774-0.099-3.523-0.581-5.25c-0.946-3.388-3.128-5.403-6.591-5.886c-2.141-0.299-4.293-0.244-6.435,0.279
			c-4.167,1.017-6.581,3.697-7.577,7.757c-0.445,1.817-0.57,3.678-0.564,5.555c0.023,7.366,0.02,14.732-0.003,22.099
			C324.805,344.506,325.029,345.606,324.41,346.818z"/>
		<path fill-rule="evenodd" clip-rule="evenodd" fill="#FBFCF9" d="M420.794,296.075c13.94,0.014,25.308,11.395,25.283,25.313
			c-0.024,13.785-11.62,25.45-25.293,25.445c-13.686-0.006-25.258-11.66-25.275-25.455
			C395.491,307.449,406.871,296.061,420.794,296.075z M407.224,321.403c-0.102,1.371,0.202,2.913,0.698,4.41
			c1.831,5.533,7.281,10.464,14.504,9.587c2.521-0.306,4.711-1.331,6.648-2.911c5.898-4.811,7.037-13.542,2.581-19.609
			c-3.434-4.675-9.428-6.627-14.947-4.868C411.03,309.821,407.267,315.045,407.224,321.403z"/>
		<path fill-rule="evenodd" clip-rule="evenodd" fill="#FBFCF9" d="M555.827,321.129c0.253,13.863-11.786,25.536-25.139,25.536
			c-13.411,0-25.092-11.643-25.214-25.21c-0.117-12.934,10.297-25.367,25.182-25.373
			C545.541,296.076,556.004,308.426,555.827,321.129z M544.203,321.182c-0.063-0.767-0.09-1.553-0.199-2.326
			c-0.754-5.325-4.863-9.893-9.999-11.141c-5.353-1.3-10.887,0.663-14.105,5.004c-5.163,6.961-2.836,17.22,4.865,21.201
			c4.025,2.08,8.141,2.082,12.086-0.169C541.665,331.004,544.051,326.737,544.203,321.182z"/>
		<path fill-rule="evenodd" clip-rule="evenodd" fill="#FBFCF9" d="M224.887,316.128c0-8.732,0.01-17.464-0.005-26.196
			c-0.005-3.066,0.286-6.081,1.447-8.946c2.8-6.911,7.61-11.546,15.049-13.154c2.425-0.524,4.884-0.312,7.332-0.276
			c0.421,0.006,0.719,0.304,0.792,0.729c0.067,0.384,0.097,0.779,0.098,1.17c0.008,2.551,0.026,5.102-0.002,7.652
			c-0.019,1.665-0.12,1.732-1.899,1.783c-0.49,0.014-0.982,0.025-1.471,0.003c-6.009-0.278-9,3.911-9.738,8.29
			c-0.44,2.611-0.19,5.285-0.121,7.932c0.016,0.599,0.439,0.878,0.966,0.891c1.863,0.043,3.727,0.043,5.591,0.057
			c1.472,0.01,2.944-0.014,4.414,0.033c0.999,0.032,1.308,0.303,1.317,1.183c0.029,2.845,0.031,5.69,0.002,8.535
			c-0.01,0.931-0.286,1.184-1.284,1.198c-2.55,0.036-5.102,0.021-7.652,0.028c-0.687,0.002-1.375-0.014-2.06,0.02
			c-1.114,0.055-1.284,0.239-1.334,1.459c-0.033,0.783-0.017,1.569-0.017,2.354c0,11.086,0.001,22.173-0.001,33.26
			c-0.001,2.575,0.217,2.734-2.792,2.716c-2.452-0.017-4.905,0.003-7.357-0.036c-0.95-0.015-1.193-0.29-1.244-1.25
			c-0.042-0.783-0.028-1.569-0.028-2.354C224.886,334.18,224.887,325.155,224.887,316.128z"/>
		<path fill-rule="evenodd" clip-rule="evenodd" fill="#FBFCF9" d="M393.027,278.452c-1.162,0.641-2.26,0.418-3.32,0.436
			c-5.473,0.092-8.756,2.857-9.745,8.268c-0.48,2.628-0.243,5.28-0.186,7.923c0.013,0.564,0.416,0.879,0.96,0.901
			c1.273,0.049,2.548,0.069,3.822,0.079c2.061,0.016,4.121-0.008,6.182,0.028c1.045,0.018,1.295,0.233,1.305,1.162
			c0.028,2.845,0.03,5.691-0.003,8.536c-0.012,0.989-0.26,1.221-1.219,1.231c-2.648,0.029-5.298,0.018-7.947,0.022
			c-0.49,0.001-0.981-0.01-1.472,0.01c-1.455,0.059-1.654,0.238-1.686,1.748c-0.036,1.766-0.016,3.532-0.016,5.299
			c-0.001,9.714,0.001,19.428-0.002,29.142c-0.001,0.883-0.018,1.766-0.052,2.647c-0.022,0.573-0.357,0.914-0.926,0.915
			c-3.139,0.006-6.277-0.001-9.416-0.024c-0.557-0.005-0.908-0.346-0.948-0.911c-0.042-0.586-0.041-1.177-0.041-1.765
			c-0.001-18.349-0.014-36.698,0.009-55.046c0.008-6.171,2.137-11.53,6.523-15.898c3.708-3.69,8.202-5.631,13.476-5.645
			c1.177-0.003,2.354,0.001,3.531,0.02c0.66,0.011,1.16,0.286,1.163,1.017C393.036,271.874,393.027,275.202,393.027,278.452z"/>
		<path fill-rule="evenodd" clip-rule="evenodd" fill="#FBFCF9" d="M476.557,335.406c0.102,0.253,0.229,0.426,0.231,0.6
			c0.029,3.14,0.049,6.28,0.055,9.42c0.001,0.652-0.245,1.089-1.006,1.17c-11.834,1.259-21.474-6.137-23.335-17.901
			c-0.231-1.459-0.363-2.917-0.362-4.395c0.007-18.064,0.001-36.129,0.008-54.194c0.001-2.801-0.233-2.706,2.733-2.709
			c2.552-0.003,5.104,0.014,7.657,0.031c0.695,0.004,1.084,0.356,1.094,1.073c0.012,0.883,0.027,1.767,0.027,2.65
			c0.002,17.083-0.001,34.166,0.007,51.249c0,1.373,0.02,2.75,0.116,4.119c0.135,1.907,0.849,3.63,1.972,5.159
			c1.668,2.269,3.881,3.532,6.759,3.563C473.873,335.255,475.251,335.067,476.557,335.406z"/>
		<path fill-rule="evenodd" clip-rule="evenodd" fill="#FBFCF9" d="M499.204,321.441c0,7.265,0.001,14.528-0.001,21.792
			c0,0.785-0.016,1.57-0.017,2.355c-0.002,0.678-0.274,1.18-0.996,1.186c-3.336,0.029-6.672,0.039-10.008,0.019
			c-0.702-0.004-1.015-0.529-1.052-1.183c-0.039-0.685-0.037-1.373-0.037-2.06c-0.002-14.725,0.004-29.448-0.006-44.173
			c-0.003-3.567-0.046-3.314,3.426-3.316c2.062,0,4.122-0.016,6.184,0.005c2.474,0.025,2.493,0.04,2.503,2.405
			c0.016,3.926,0.004,7.853,0.004,11.78C499.204,313.981,499.204,317.711,499.204,321.441z"/>
		<path fill-rule="evenodd" clip-rule="evenodd" fill="#FBFCF9" d="M493.155,267.405c4.067-0.014,7.327,3.232,7.297,7.265
			c-0.031,4.098-3.252,7.291-7.321,7.258c-4.073-0.033-7.38-3.259-7.355-7.283C485.803,270.211,489.666,267.231,493.155,267.405z"/>
		<path fill-rule="evenodd" clip-rule="evenodd" fill="#89B14C" d="M105.11,296.4c-0.36-0.455-0.126-0.925,0.003-1.381
			c0.699-2.453,1.399-4.905,2.117-7.352c1.822-6.209,5.253-11.365,10.221-15.493c5.649-4.694,12.214-7.374,19.369-8.756
			c2.614-0.505,5.251-0.726,7.905-0.735c6.186-0.022,12.371-0.016,18.556-0.011c0.677,0.001,1.382-0.109,1.998,0.321
			c0.194,0.707-0.133,1.351-0.297,1.998c-1.185,4.658-2.401,9.309-3.616,13.959c-0.124,0.474-0.285,0.94-0.455,1.399
			c-0.15,0.405-0.476,0.606-0.898,0.62c-0.785,0.025-1.57,0.043-2.355,0.044c-5.203,0.004-10.407-0.013-15.61,0.016
			c-1.172,0.006-2.378,0.021-3.508,0.289c-3.801,0.904-6.551,3.181-7.783,6.906c-0.602,1.822-1.547,2.271-3.362,2.368
			c-7.32,0.392-14.369,1.985-20.932,5.389C106.041,296.199,105.65,296.517,105.11,296.4z"/>
		<path fill-rule="evenodd" clip-rule="evenodd" fill="#89B14C" d="M97.36,352.179c-3.336,0-6.672,0.015-10.008-0.008
			c-1.326-0.009-1.621-0.357-1.304-1.581c0.912-3.51,1.902-7.001,2.793-10.517c0.485-1.912,1.077-3.773,2.015-5.509
			c1.612-2.983,3.858-5.423,6.528-7.488c4.332-3.352,9.249-5.507,14.462-7.041c1.409-0.415,2.846-0.744,4.28-1.065
			c1.615-0.361,1.887,0.046,1.427,1.684c-0.929,3.303-1.769,6.631-2.647,9.947c-1.657,6.255-3.316,12.509-4.974,18.764
			c-0.151,0.568-0.296,1.138-0.455,1.705c-0.213,0.766-0.729,1.106-1.519,1.101c-1.178-0.01-2.355,0.01-3.532,0.011
			c-2.355,0.003-4.71,0.001-7.065,0.001C97.36,352.181,97.36,352.18,97.36,352.179z"/>
		<path fill-rule="evenodd" clip-rule="evenodd" fill="#89B14C" d="M93.974,322.123c-0.278-0.484-0.121-0.946,0.009-1.424
			c3.056-11.192,10.236-18.536,21.045-22.429c4.081-1.47,8.321-2.328,12.663-2.486c4.021-0.146,8.046-0.177,12.07-0.203
			c1.836-0.012,1.998,0.255,1.538,2.118c-0.283,1.142-0.627,2.269-0.926,3.407c-0.797,3.036-1.619,6.066-2.366,9.114
			c-0.806,3.286-0.707,2.734-3.736,2.767c-3.436,0.036-6.872,0-10.308,0.01c-9.859,0.027-18.946,2.81-27.439,7.707
			C95.68,321.188,94.961,321.903,93.974,322.123z"/>
		<path fill-rule="evenodd" clip-rule="evenodd" fill="#89B14C" d="M277.315,307.383c7.312-0.065,13.645,5.701,14.283,12.987
			c0.131,1.492-0.086,2.942-0.479,4.365c-1.715,6.195-7.788,10.925-13.874,10.762c-2.742-0.073-5.203-0.857-7.41-2.463
			c-6.678-4.858-7.811-14.919-2.366-21.133C270.068,308.933,273.359,307.423,277.315,307.383z"/>
		<path fill-rule="evenodd" clip-rule="evenodd" fill="#89B14C" d="M407.224,321.403c0.043-6.357,3.806-11.582,9.484-13.392
			c5.52-1.759,11.514,0.193,14.947,4.868c4.456,6.067,3.317,14.799-2.581,19.609c-1.938,1.58-4.128,2.605-6.648,2.911
			c-7.223,0.877-12.673-4.054-14.504-9.587C407.426,324.316,407.123,322.774,407.224,321.403z"/>
		<path fill-rule="evenodd" clip-rule="evenodd" fill="#89B14C" d="M544.203,321.182c-0.151,5.555-2.538,9.822-7.353,12.569
			c-3.945,2.251-8.061,2.249-12.086,0.169c-7.701-3.981-10.028-14.24-4.865-21.201c3.219-4.341,8.753-6.304,14.105-5.004
			c5.136,1.248,9.245,5.815,9.999,11.141C544.113,319.629,544.139,320.416,544.203,321.182z"/>
	</g>
</g>
</svg>
