<?xml version="1.0" encoding="utf-8"?>
<!-- Generator: Adobe Illustrator 16.0.0, SVG Export Plug-In . SVG Version: 6.00 Build 0)  -->
<!DOCTYPE svg PUBLIC "-//W3C//DTD SVG 1.1//EN" "http://www.w3.org/Graphics/SVG/1.1/DTD/svg11.dtd">
<svg version="1.1" id="Layer_1" xmlns="http://www.w3.org/2000/svg" xmlns:xlink="http://www.w3.org/1999/xlink" x="0px" y="0px"
	 width="1000.133px" height="1000.227px" viewBox="0 0 1000.133 1000.227" enable-background="new 0 0 1000.133 1000.227"
	 xml:space="preserve">
<g id="_x39_mTlPg_1_">
	<g>
		<path fill="#FFFFFF" d="M0,1000.227C0,666.849,0,333.471,0,0c333.304,0,666.642,0,1000.133,0c0,333.347,0,666.787,0,1000.227
			C666.833,1000.227,333.433,1000.227,0,1000.227z M204.174,608.09c20.948,0,41.896,0.012,62.844-0.015
			c2.714-0.003,5.434-0.129,8.142-0.324c8.578-0.618,16.127-3.837,22.629-9.397c9.973-8.528,14.648-19.481,14.642-32.551
			c-0.022-43.814-0.006-87.629-0.014-131.444c-0.001-3.202-0.208-6.396-0.888-9.533c-4.441-20.488-22.665-32.52-39.903-32.465
			c-44.774,0.141-89.548,0.042-134.322,0.065c-2.072,0-4.181,0.049-6.212,0.412c-23.684,4.234-34.433,24.529-34.359,40.268
			c0.211,44.773,0.155,89.548,0.035,134.321C96.72,584.837,109.11,602.347,128,606.837c4.242,1.009,8.534,1.237,12.85,1.242
			C161.958,608.103,183.066,608.09,204.174,608.09z M494.202,524.085c0-12.146,0.001-24.293-0.002-36.439
			c0-1.278,0.011-2.559-0.051-3.834c-0.044-0.917-0.625-1.506-1.521-1.515c-5.112-0.052-10.225-0.071-15.337-0.055
			c-1.168,0.003-1.649,0.8-1.683,1.894c-0.039,1.277-0.032,2.557-0.099,3.833c-0.055,1.058-0.668,1.419-1.54,0.934
			c-0.977-0.544-1.92-1.148-2.896-1.694c-8.756-4.896-18.089-6.172-27.815-4.022c-22.058,4.877-36.114,26.557-31.363,48.643
			c5.856,27.224,36.779,42.106,60.483,27.193c0.54-0.34,1.087-0.677,1.659-0.958c0.706-0.347,1.327-0.074,1.403,0.65
			c0.151,1.425,0.116,2.87,0.164,4.307c0.036,1.085,0.489,1.913,1.66,1.918c5.112,0.023,10.226,0.004,15.337-0.044
			c0.89-0.008,1.495-0.58,1.545-1.494c0.071-1.275,0.053-2.557,0.053-3.835C494.203,547.74,494.202,535.913,494.202,524.085z
			 M644.201,523.457c-0.025,21.229,17.39,41.427,41.166,41.435c23.535,0.007,41.163-19.876,41.192-41.411
			c0.029-21.8-17.253-41.181-41.169-41.198C661.474,482.266,644.183,501.694,644.201,523.457z M529.592,486.759
			c-0.596-0.453-0.501-1.119-0.523-1.721c-0.08-2.185,0.237-2.873-3.189-2.843c-3.516,0.031-7.033,0.009-10.549,0.002
			c-5.41-0.011-5.198-0.289-5.197,5.246c0.008,24.135,0.003,48.27,0.005,72.405c0,0.959-0.023,1.92,0.033,2.876
			c0.106,1.762,0.514,2.203,2.39,2.23c3.995,0.059,7.991,0.02,11.987,0.032c4.729,0.015,4.507,0.055,4.505-4.419
			c-0.004-12.307,0.021-24.614-0.016-36.921c-0.009-3.055,0.208-6.085,0.885-9.048c1.561-6.844,5.635-11.266,12.607-12.922
			c3.329-0.79,6.669-0.877,9.999-0.45c5.85,0.75,9.539,4.071,11.033,9.819c0.689,2.653,0.933,5.334,0.927,8.068
			c-0.025,13.426-0.012,26.852-0.008,40.278c0,1.278,0.001,2.558,0.038,3.835c0.034,1.178,0.769,1.714,1.855,1.718
			c5.114,0.021,10.229,0.009,15.343,0.003c0.157-0.001,0.313-0.061,0.471-0.093c0.688-0.14,1.133-0.543,1.241-1.241
			c0.073-0.47,0.1-0.951,0.099-1.428c-0.022-15.664,0.028-31.328-0.125-46.99c-0.049-4.954-0.919-9.849-2.552-14.578
			c-2.928-8.479-8.658-14.172-17.262-16.534c-10.608-2.912-21.166-2.884-31.342,2.003
			C531.405,486.493,530.621,487.127,529.592,486.759z M864.344,564.541c21.744,0.45,40.867-18.838,41.063-40.973
			c0.186-20.918-16.658-41.229-41.044-41.345c-22.726-0.108-41.138,18.518-41.023,41.322
			C823.458,547.079,843.814,565.071,864.344,564.541z M366.225,515.101c0,14.382,0,28.764,0,43.146c0,1.118-0.021,2.237,0.005,3.355
			c0.078,3.217,0.154,3.332,3.187,3.37c3.674,0.047,7.35-0.006,11.025,0.018c4.81,0.03,4.449-0.102,4.45-4.478
			c0.002-18.217,0-36.434,0.002-54.651c0-1.278-0.027-2.559,0.037-3.834c0.075-1.504,0.455-1.826,2.114-1.912
			c0.797-0.041,1.598-0.022,2.396-0.022c4.314-0.004,8.629,0.025,12.943-0.02c2.365-0.025,2.618-0.244,2.641-2.376
			c0.047-4.474,0.035-8.948-0.006-13.422c-0.014-1.514-0.496-2.014-2.019-2.034c-4.313-0.057-8.628-0.024-12.943-0.047
			c-1.275-0.007-2.552-0.05-3.824-0.14c-0.706-0.05-1.208-0.538-1.222-1.221c-0.095-4.625-0.632-9.299,0.335-13.856
			c1.531-7.211,6.538-13.091,15.554-12.679c1.275,0.058,2.556-0.005,3.834-0.027c1.134-0.02,1.808-0.582,1.812-1.742
			c0.021-4.953,0.028-9.907,0.011-14.86c-0.004-1.067-0.468-1.892-1.667-1.892c-3.828-0.001-7.683-0.388-11.472,0.404
			c-12.121,2.531-20.058,9.994-24.677,21.23c-1.972,4.796-2.534,9.866-2.525,15.025
			C366.242,486.657,366.227,500.879,366.225,515.101z M638.215,499.726c0.387-2.365,0.667-13.548,0.426-15.8
			c-0.123-1.15-0.762-1.687-1.883-1.691c-4.318-0.016-8.637-0.014-12.955-0.042c-1.276-0.009-2.557-0.049-3.827-0.164
			c-0.658-0.059-1.252-0.452-1.278-1.182c-0.189-5.42-0.82-10.889,0.934-16.174c2.199-6.625,7.036-10.146,13.97-10.357
			c1.599-0.048,3.199-0.018,4.797-0.071c1.083-0.036,1.794-0.517,1.793-1.731c-0.004-4.958,0.009-9.916,0.002-14.874
			c-0.002-1.105-0.496-1.865-1.686-1.865c-3.833,0-7.69-0.37-11.485,0.399c-9.839,1.993-17.144,7.551-22.171,16.132
			c-3.473,5.926-4.964,12.375-4.951,19.262c0.056,29.59,0.022,59.181,0.022,88.771c0,0.8-0.023,1.601,0.018,2.398
			c0.093,1.812,0.427,2.192,2.343,2.219c4.157,0.055,8.316,0.05,12.475,0.022c3.695-0.024,3.699-0.053,3.758-3.718
			c0.015-0.959,0.002-1.919,0.002-2.879c0-17.274,0-34.549,0.001-51.823c0-1.279-0.031-2.561,0.021-3.838
			c0.086-2.156,0.426-2.562,2.503-2.595c3.998-0.062,7.998,0.014,11.995-0.053C634.767,500.043,636.543,500.417,638.215,499.726z
			 M736.448,484.523c0.002,0,0.004,0,0.006,0c0,14.868-0.032,29.735,0.013,44.603c0.023,8.054,2.193,15.497,7.012,22.008
			c6.262,8.46,14.58,13.224,25.255,13.482c1.918,0.046,3.838,0.056,5.755,0.015c2.095-0.045,2.27-0.195,2.297-2.141
			c0.045-3.196,0.1-6.396-0.009-9.59c-0.073-2.171,0.909-4.869-0.755-6.364c-1.445-1.301-3.989-0.354-6.043-0.489
			c-0.318-0.021-0.64,0.001-0.959-0.017c-3.689-0.206-6.79-1.661-9.267-4.407c-2.545-2.822-4.014-6.146-4.362-9.915
			c-0.176-1.905-0.148-3.832-0.148-5.749c-0.009-28.137-0.006-56.273-0.008-84.41c0-1.438-0.018-2.877-0.04-4.315
			c-0.019-1.196-0.748-1.705-1.834-1.71c-4.955-0.021-9.911-0.012-14.866-0.011c-0.159,0-0.317,0.037-0.477,0.05
			c-0.913,0.077-1.481,0.534-1.514,1.481c-0.043,1.277-0.053,2.557-0.054,3.835C736.447,455.427,736.448,469.976,736.448,484.523z
			 M813.092,523.515c0-11.826,0.001-23.651-0.001-35.478c0-1.278,0.023-2.558-0.035-3.834c-0.068-1.49-0.492-1.944-2.091-1.966
			c-4.154-0.057-8.31-0.031-12.465-0.038c-5.356-0.009-5.169-0.315-5.167,5.274c0.008,24.131,0.003,48.262,0.006,72.393
			c0,1.118-0.013,2.24,0.064,3.354c0.078,1.132,0.794,1.699,1.896,1.718c2.236,0.038,4.474,0.042,6.711,0.046
			c2.876,0.004,5.753,0.032,8.629-0.024c1.982-0.04,2.346-0.395,2.428-2.132c0.053-1.116,0.025-2.237,0.025-3.355
			C813.093,547.487,813.093,535.5,813.092,523.515z M815.114,447.312c0.462-5.695-5.13-11.923-11.816-11.809
			c-6.574,0.113-12.013,5.274-12.092,11.673c-0.082,6.635,5.494,12.161,12.187,12.077
			C809.955,459.171,815.096,453.933,815.114,447.312z"/>
		<path fill-rule="evenodd" clip-rule="evenodd" fill="#8AB24D" d="M204.174,608.09c-21.107,0-42.215,0.013-63.323-0.011
			c-4.316-0.005-8.608-0.233-12.85-1.242c-18.891-4.49-31.28-22-31.233-39.409c0.12-44.773,0.176-89.548-0.035-134.321
			c-0.074-15.739,10.675-36.034,34.359-40.268c2.031-0.363,4.14-0.412,6.212-0.412c44.774-0.023,89.548,0.075,134.322-0.065
			c17.238-0.055,35.461,11.978,39.903,32.465c0.68,3.137,0.887,6.331,0.888,9.533c0.008,43.814-0.008,87.629,0.014,131.444
			c0.006,13.069-4.669,24.022-14.642,32.551c-6.502,5.561-14.051,8.779-22.629,9.397c-2.708,0.195-5.427,0.321-8.142,0.324
			C246.07,608.102,225.122,608.09,204.174,608.09z M171.239,482.966c1.289-0.047,2.294-0.902,3.397-1.448
			c4.889-2.42,9.985-4.247,15.278-5.548c6.378-1.568,12.837-2.593,19.407-2.776c1.663-0.046,2.684-0.531,3.061-2.277
			c0.233-1.075,0.762-2.099,1.242-3.106c2.603-5.451,7.018-8.597,12.841-9.77c1.702-0.343,3.499-0.286,5.253-0.291
			c9.271-0.028,18.541,0,27.812-0.032c2.217-0.008,2.44-0.161,3.006-2.263c1.494-5.55,2.91-11.121,4.354-16.684
			c0.802-3.091,1.606-6.183,2.396-9.277c0.246-0.963-0.164-1.502-1.147-1.593c-0.476-0.044-0.956-0.077-1.434-0.075
			c-11.348,0.035-22.7-0.113-34.042,0.167c-11.194,0.277-21.755,3.298-31.587,8.674c-13.707,7.494-22.956,18.593-27.044,33.811
			c-0.911,3.392-1.931,6.754-2.882,10.135C170.939,481.36,170.599,482.133,171.239,482.966z M140.003,573.118
			c0.671,0.713,1.498,0.567,2.273,0.567c10.708,0.008,21.417,0.006,32.126,0.005c0.479,0,0.959-0.027,1.438-0.014
			c1.282,0.038,2.136-0.517,2.48-1.773c0.169-0.616,0.298-1.243,0.462-1.861c4.229-15.893,8.46-31.785,12.686-47.68
			c0.163-0.613,0.324-1.239,0.376-1.868c0.063-0.754-0.381-1.248-1.127-1.14c-1.575,0.229-3.151,0.497-4.694,0.879
			c-10.021,2.474-19.457,6.254-27.67,12.672c-6.756,5.279-11.474,11.899-13.527,20.347c-1.319,5.429-2.901,10.794-4.318,16.199
			C140.193,570.657,139.642,571.862,140.003,573.118z M153.084,524.694c0.158-0.024,0.34-0.006,0.47-0.08
			c0.827-0.475,1.651-0.957,2.461-1.459c11.167-6.919,23.316-10.987,36.31-12.77c5.423-0.744,10.84-0.488,16.264-0.559
			c4.313-0.057,8.627,0.011,12.941-0.035c1.797-0.019,2.161-0.316,2.667-2.096c0.7-2.455,1.32-4.934,1.956-7.406
			c1.432-5.564,2.881-11.124,4.258-16.701c0.376-1.524-0.118-2.108-1.59-2.216c-0.795-0.058-1.597-0.053-2.395-0.052
			c-6.389,0.009-12.776-0.065-19.16,0.428c-7.695,0.594-15.202,2.054-22.354,4.954c-16.47,6.678-27.249,18.506-31.9,35.765
			C152.809,523.223,152.509,523.969,153.084,524.694z"/>
		<path fill-rule="evenodd" clip-rule="evenodd" fill="#8AB24D" d="M494.202,524.085c0,11.827,0.001,23.654-0.002,35.48
			c0,1.278,0.018,2.56-0.053,3.835c-0.051,0.914-0.655,1.486-1.545,1.494c-5.112,0.048-10.225,0.067-15.337,0.044
			c-1.17-0.005-1.624-0.833-1.66-1.918c-0.048-1.437-0.012-2.882-0.164-4.307c-0.077-0.725-0.698-0.997-1.403-0.65
			c-0.571,0.281-1.119,0.618-1.659,0.958c-23.704,14.913-54.627,0.03-60.483-27.193c-4.751-22.086,9.305-43.766,31.363-48.643
			c9.726-2.15,19.059-0.875,27.815,4.022c0.976,0.545,1.919,1.15,2.896,1.694c0.872,0.485,1.485,0.124,1.54-0.934
			c0.067-1.276,0.06-2.555,0.099-3.833c0.033-1.093,0.515-1.89,1.683-1.894c5.112-0.016,10.225,0.003,15.337,0.055
			c0.896,0.009,1.477,0.598,1.521,1.515c0.062,1.276,0.051,2.556,0.051,3.834C494.203,499.792,494.202,511.939,494.202,524.085z
			 M451.388,500.686c-5.982-0.012-11.204,2.384-15.423,6.982c-6.653,7.249-7.985,18.375-2.995,27.238
			c4.564,8.106,11.532,12.179,21,11.422c9.041-0.722,17.774-8.242,20.203-17.402c0.615-2.319,1.063-4.675,0.809-7.109
			C473.672,509.274,463.019,500.421,451.388,500.686z"/>
		<path fill-rule="evenodd" clip-rule="evenodd" fill="#8AB24D" d="M644.201,523.457c-0.018-21.763,17.273-41.191,41.189-41.175
			c23.916,0.017,41.198,19.398,41.169,41.198c-0.029,21.535-17.657,41.418-41.192,41.411
			C661.59,564.883,644.175,544.685,644.201,523.457z M663.213,522.787c0.084,1.433,0.071,2.718,0.259,3.974
			c0.187,1.257,0.5,2.506,0.882,3.719c2.727,8.672,11.424,17.421,23.847,15.782c6.944-0.915,12.092-4.692,15.758-10.523
			c6.717-10.684,3.688-25.125-6.762-31.65c-7.213-4.504-14.884-4.742-22.311-0.739C667.242,507.468,663.651,514.338,663.213,522.787
			z"/>
		<path fill-rule="evenodd" clip-rule="evenodd" fill="#8AB24D" d="M529.592,486.759c1.028,0.368,1.812-0.266,2.655-0.67
			c10.176-4.888,20.733-4.916,31.342-2.003c8.604,2.362,14.334,8.055,17.262,16.534c1.633,4.729,2.503,9.624,2.552,14.578
			c0.153,15.662,0.103,31.326,0.125,46.99c0.001,0.477-0.025,0.958-0.099,1.428c-0.108,0.698-0.554,1.102-1.241,1.241
			c-0.157,0.032-0.313,0.092-0.471,0.093c-5.114,0.006-10.229,0.019-15.343-0.003c-1.087-0.004-1.821-0.54-1.855-1.718
			c-0.037-1.277-0.038-2.557-0.038-3.835c-0.004-13.427-0.018-26.853,0.008-40.278c0.006-2.734-0.237-5.415-0.927-8.068
			c-1.494-5.748-5.184-9.069-11.033-9.819c-3.33-0.427-6.67-0.34-9.999,0.45c-6.973,1.656-11.047,6.078-12.607,12.922
			c-0.677,2.963-0.894,5.993-0.885,9.048c0.036,12.307,0.012,24.614,0.016,36.921c0.002,4.474,0.224,4.434-4.505,4.419
			c-3.996-0.013-7.992,0.026-11.987-0.032c-1.876-0.027-2.283-0.469-2.39-2.23c-0.057-0.956-0.033-1.917-0.033-2.876
			c-0.002-24.135,0.003-48.27-0.005-72.405c-0.001-5.534-0.213-5.256,5.197-5.246c3.516,0.007,7.033,0.028,10.549-0.002
			c3.427-0.03,3.109,0.658,3.189,2.843C529.091,485.64,528.997,486.306,529.592,486.759z"/>
		<path fill-rule="evenodd" clip-rule="evenodd" fill="#8AB24D" d="M864.344,564.541c-20.53,0.53-40.887-17.462-41.004-40.995
			c-0.114-22.805,18.298-41.43,41.023-41.322c24.386,0.116,41.229,20.427,41.044,41.345
			C905.211,545.703,886.088,564.991,864.344,564.541z M886.353,523.431c-0.041-0.934-0.057-1.732-0.116-2.527
			c-0.7-9.356-7.408-17.627-16.335-19.649c-11.435-2.59-19.976,2.599-24.35,9.998c-6.591,11.148-2.944,25.274,7.827,31.865
			c7.325,4.481,14.917,4.459,22.165-0.158C882.639,538.439,886.251,531.78,886.353,523.431z"/>
		<path fill-rule="evenodd" clip-rule="evenodd" fill="#8AB24D" d="M366.226,515.101c0.001-14.222,0.017-28.444-0.007-42.666
			c-0.009-5.159,0.554-10.229,2.525-15.025c4.619-11.236,12.556-18.7,24.677-21.23c3.789-0.792,7.644-0.405,11.472-0.404
			c1.198,0,1.663,0.825,1.667,1.892c0.017,4.953,0.009,9.907-0.011,14.86c-0.004,1.161-0.678,1.722-1.812,1.742
			c-1.278,0.022-2.559,0.085-3.834,0.027c-9.016-0.412-14.023,5.467-15.554,12.679c-0.967,4.557-0.43,9.231-0.335,13.856
			c0.014,0.683,0.516,1.171,1.222,1.221c1.272,0.09,2.549,0.133,3.824,0.14c4.314,0.023,8.629-0.009,12.943,0.047
			c1.523,0.02,2.004,0.521,2.019,2.034c0.041,4.474,0.054,8.949,0.006,13.422c-0.022,2.132-0.275,2.351-2.641,2.376
			c-4.314,0.045-8.629,0.016-12.943,0.02c-0.799,0-1.6-0.019-2.396,0.022c-1.659,0.086-2.039,0.408-2.114,1.912
			c-0.064,1.275-0.037,2.556-0.037,3.834c-0.002,18.218,0,36.435-0.002,54.651c0,4.376,0.36,4.508-4.45,4.478
			c-3.675-0.023-7.351,0.029-11.025-0.018c-3.033-0.038-3.109-0.153-3.187-3.37c-0.027-1.118-0.005-2.237-0.005-3.355
			C366.225,543.865,366.225,529.483,366.226,515.101z"/>
		<path fill-rule="evenodd" clip-rule="evenodd" fill="#8AB24D" d="M638.215,499.726c-1.672,0.691-3.448,0.317-5.179,0.346
			c-3.997,0.066-7.997-0.01-11.995,0.053c-2.077,0.032-2.417,0.438-2.503,2.595c-0.052,1.277-0.021,2.559-0.021,3.838
			c-0.001,17.274-0.001,34.549-0.001,51.823c0,0.96,0.013,1.92-0.002,2.879c-0.059,3.665-0.062,3.693-3.758,3.718
			c-4.158,0.027-8.317,0.032-12.475-0.022c-1.916-0.026-2.25-0.406-2.343-2.219c-0.041-0.798-0.018-1.599-0.018-2.398
			c0-29.59,0.033-59.181-0.022-88.771c-0.013-6.887,1.479-13.336,4.951-19.262c5.027-8.581,12.332-14.139,22.171-16.132
			c3.795-0.769,7.652-0.399,11.485-0.399c1.189,0,1.684,0.76,1.686,1.865c0.007,4.958-0.006,9.916-0.002,14.874
			c0.001,1.215-0.71,1.696-1.793,1.731c-1.598,0.054-3.198,0.023-4.797,0.071c-6.934,0.21-11.771,3.732-13.97,10.357
			c-1.754,5.285-1.123,10.754-0.934,16.174c0.026,0.73,0.62,1.123,1.278,1.182c1.271,0.115,2.551,0.155,3.827,0.164
			c4.318,0.028,8.637,0.027,12.955,0.042c1.121,0.004,1.76,0.541,1.883,1.691C638.882,486.178,638.602,497.361,638.215,499.726z"/>
		<path fill-rule="evenodd" clip-rule="evenodd" fill="#8AB24D" d="M736.448,484.523c0-14.547-0.001-29.096,0.002-43.644
			c0.001-1.278,0.011-2.558,0.054-3.835c0.032-0.947,0.601-1.404,1.514-1.481c0.159-0.014,0.317-0.05,0.477-0.05
			c4.955-0.001,9.911-0.011,14.866,0.011c1.086,0.005,1.815,0.514,1.834,1.71c0.022,1.438,0.04,2.877,0.04,4.315
			c0.002,28.137-0.001,56.273,0.008,84.41c0,1.917-0.027,3.844,0.148,5.749c0.349,3.77,1.817,7.093,4.362,9.915
			c2.477,2.746,5.577,4.201,9.267,4.407c0.319,0.018,0.641-0.004,0.959,0.017c2.054,0.136,4.598-0.812,6.043,0.489
			c1.664,1.495,0.682,4.193,0.755,6.364c0.108,3.193,0.054,6.394,0.009,9.59c-0.027,1.945-0.202,2.096-2.297,2.141
			c-1.917,0.041-3.837,0.031-5.755-0.015c-10.675-0.259-18.993-5.022-25.255-13.482c-4.818-6.511-6.988-13.954-7.012-22.008
			c-0.045-14.867-0.013-29.735-0.013-44.603C736.452,484.523,736.45,484.523,736.448,484.523z"/>
		<path fill-rule="evenodd" clip-rule="evenodd" fill="#8AB24D" d="M813.093,523.515c0,11.985,0,23.972-0.001,35.957
			c0,1.118,0.027,2.239-0.025,3.355c-0.082,1.737-0.445,2.092-2.428,2.132c-2.876,0.057-5.753,0.028-8.629,0.024
			c-2.237-0.004-4.475-0.008-6.711-0.046c-1.102-0.019-1.817-0.586-1.896-1.718c-0.077-1.114-0.064-2.236-0.064-3.354
			c-0.003-24.131,0.002-48.262-0.006-72.393c-0.002-5.589-0.189-5.283,5.167-5.274c4.155,0.007,8.311-0.019,12.465,0.038
			c1.599,0.022,2.022,0.476,2.091,1.966c0.059,1.276,0.035,2.556,0.035,3.834C813.093,499.864,813.092,511.689,813.093,523.515z"/>
		<path fill-rule="evenodd" clip-rule="evenodd" fill="#8AB24D" d="M815.114,447.312c-0.018,6.621-5.159,11.859-11.722,11.941
			c-6.692,0.084-12.269-5.442-12.187-12.077c0.079-6.398,5.518-11.56,12.092-11.673
			C809.984,435.389,815.576,441.617,815.114,447.312z"/>
		<path fill-rule="evenodd" clip-rule="evenodd" fill="#FCFDFA" d="M171.239,482.966c-0.641-0.833-0.3-1.606-0.089-2.354
			c0.952-3.381,1.972-6.743,2.882-10.135c4.088-15.218,13.337-26.317,27.044-33.811c9.832-5.375,20.393-8.397,31.587-8.674
			c11.342-0.281,22.694-0.133,34.042-0.167c0.479-0.001,0.958,0.031,1.434,0.075c0.983,0.091,1.393,0.63,1.147,1.593
			c-0.79,3.095-1.594,6.186-2.396,9.277c-1.444,5.563-2.86,11.134-4.354,16.684c-0.566,2.102-0.789,2.255-3.006,2.263
			c-9.271,0.032-18.541,0.004-27.812,0.032c-1.754,0.005-3.551-0.052-5.253,0.291c-5.823,1.173-10.238,4.319-12.841,9.77
			c-0.48,1.007-1.009,2.031-1.242,3.106c-0.377,1.746-1.398,2.23-3.061,2.277c-6.569,0.183-13.028,1.208-19.407,2.776
			c-5.293,1.301-10.389,3.128-15.278,5.548C173.533,482.064,172.528,482.918,171.239,482.966z"/>
		<path fill-rule="evenodd" clip-rule="evenodd" fill="#FCFDFA" d="M140.003,573.118c-0.362-1.256,0.189-2.461,0.506-3.667
			c1.417-5.405,2.999-10.771,4.318-16.199c2.053-8.447,6.771-15.067,13.527-20.347c8.213-6.418,17.648-10.198,27.67-12.672
			c1.543-0.382,3.119-0.65,4.694-0.879c0.746-0.108,1.19,0.386,1.127,1.14c-0.052,0.629-0.213,1.255-0.376,1.868
			c-4.225,15.895-8.457,31.787-12.686,47.68c-0.164,0.618-0.293,1.245-0.462,1.861c-0.344,1.257-1.198,1.812-2.48,1.773
			c-0.479-0.014-0.959,0.014-1.438,0.014c-10.709,0.001-21.418,0.003-32.126-0.005C141.501,573.685,140.674,573.831,140.003,573.118
			z"/>
		<path fill-rule="evenodd" clip-rule="evenodd" fill="#FCFDFA" d="M153.084,524.694c-0.575-0.725-0.275-1.471-0.071-2.227
			c4.651-17.259,15.43-29.087,31.9-35.765c7.151-2.899,14.658-4.359,22.354-4.954c6.383-0.493,12.771-0.418,19.16-0.428
			c0.798-0.001,1.599-0.006,2.395,0.052c1.472,0.107,1.966,0.691,1.59,2.216c-1.377,5.577-2.826,11.137-4.258,16.701
			c-0.636,2.473-1.256,4.951-1.956,7.406c-0.507,1.779-0.87,2.077-2.667,2.096c-4.313,0.046-8.628-0.021-12.941,0.035
			c-5.423,0.07-10.841-0.186-16.264,0.559c-12.994,1.782-25.142,5.851-36.31,12.77c-0.811,0.502-1.634,0.984-2.461,1.459
			C153.424,524.688,153.242,524.669,153.084,524.694z"/>
		<path fill-rule="evenodd" clip-rule="evenodd" fill="#FCFDFA" d="M451.388,500.686c11.63-0.265,22.284,8.588,23.594,21.131
			c0.254,2.435-0.194,4.79-0.809,7.109c-2.429,9.16-11.162,16.681-20.203,17.402c-9.468,0.757-16.436-3.315-21-11.422
			c-4.99-8.863-3.658-19.989,2.995-27.238C440.184,503.07,445.406,500.674,451.388,500.686z"/>
		<path fill-rule="evenodd" clip-rule="evenodd" fill="#FCFDFA" d="M663.213,522.787c0.438-8.448,4.028-15.318,11.673-19.438
			c7.427-4.002,15.098-3.765,22.311,0.739c10.449,6.525,13.479,20.967,6.762,31.65c-3.666,5.831-8.813,9.608-15.758,10.523
			c-12.423,1.639-21.12-7.11-23.847-15.782c-0.382-1.213-0.695-2.462-0.882-3.719C663.285,525.504,663.297,524.219,663.213,522.787z
			"/>
		<path fill-rule="evenodd" clip-rule="evenodd" fill="#FCFDFA" d="M886.353,523.431c-0.102,8.349-3.714,15.008-10.809,19.528
			c-7.248,4.617-14.84,4.64-22.165,0.158c-10.771-6.591-14.418-20.717-7.827-31.865c4.374-7.399,12.915-12.588,24.35-9.998
			c8.927,2.022,15.635,10.293,16.335,19.649C886.296,521.699,886.312,522.498,886.353,523.431z"/>
	</g>
</g>
</svg>
